<mxfile host="app.diagrams.net" modified="2024-05-06T16:52:46.915Z" agent="Mozilla/5.0 (Macintosh; Intel Mac OS X 10_15_7) AppleWebKit/537.36 (KHTML, like Gecko) Chrome/116.0.0.0 Safari/537.36" etag="tU-rzxu4f5I5Dnq3j7zy" version="24.3.1" type="device">
  <diagram name="Page-1" id="5daCtwEH6fwoWMxebai5">
    <mxGraphModel dx="1088" dy="600" grid="1" gridSize="10" guides="1" tooltips="1" connect="1" arrows="1" fold="1" page="1" pageScale="1" pageWidth="827" pageHeight="1169" math="0" shadow="0">
      <root>
        <mxCell id="0" />
        <mxCell id="1" parent="0" />
        <mxCell id="8HLTbYfNLxjijETVZFHI-2" value="" style="outlineConnect=0;dashed=0;verticalLabelPosition=bottom;verticalAlign=top;align=center;html=1;shape=mxgraph.aws3.route_53;fillColor=#F58536;gradientColor=none;" vertex="1" parent="1">
          <mxGeometry x="150" y="263.76" width="70.5" height="85.5" as="geometry" />
        </mxCell>
        <mxCell id="8HLTbYfNLxjijETVZFHI-23" value="" style="edgeStyle=orthogonalEdgeStyle;rounded=0;orthogonalLoop=1;jettySize=auto;html=1;entryX=0.5;entryY=1;entryDx=0;entryDy=0;entryPerimeter=0;endArrow=none;endFill=0;" edge="1" parent="1" source="8HLTbYfNLxjijETVZFHI-3" target="8HLTbYfNLxjijETVZFHI-9">
          <mxGeometry relative="1" as="geometry" />
        </mxCell>
        <mxCell id="8HLTbYfNLxjijETVZFHI-25" style="edgeStyle=orthogonalEdgeStyle;rounded=0;orthogonalLoop=1;jettySize=auto;html=1;endArrow=none;endFill=0;" edge="1" parent="1" source="8HLTbYfNLxjijETVZFHI-3" target="8HLTbYfNLxjijETVZFHI-17">
          <mxGeometry relative="1" as="geometry" />
        </mxCell>
        <mxCell id="8HLTbYfNLxjijETVZFHI-3" value="" style="outlineConnect=0;dashed=0;verticalLabelPosition=bottom;verticalAlign=top;align=center;html=1;shape=mxgraph.aws3.cloudfront;fillColor=#F58536;gradientColor=none;" vertex="1" parent="1">
          <mxGeometry x="300" y="260.01" width="76.5" height="93" as="geometry" />
        </mxCell>
        <mxCell id="8HLTbYfNLxjijETVZFHI-20" style="rounded=0;orthogonalLoop=1;jettySize=auto;html=1;endArrow=none;endFill=0;" edge="1" parent="1" source="8HLTbYfNLxjijETVZFHI-4" target="8HLTbYfNLxjijETVZFHI-2">
          <mxGeometry relative="1" as="geometry" />
        </mxCell>
        <mxCell id="8HLTbYfNLxjijETVZFHI-4" value="" style="shape=image;verticalLabelPosition=bottom;labelBackgroundColor=default;verticalAlign=top;aspect=fixed;imageAspect=0;image=data:image/vnd.microsoft.icon,AAABAAIADxAAAAEAIAAoBAAAJgAAAB0gAAABACAAKA8AAE4EAAAoAAAADwAAACAAAAABACAAAAAAAAAAAAAAAAAAAAAAAAAAAAAAAAAANh3n+TYd5/82HeeqNh3nIDYd5+Q2Hef/Nh3npjch5gI2HedMNh3n0DYd5/k2Hef/Nh3n+DYd58o2HedDNh3n/zYd5/82HeevNh3nIzYd5+Y2Hef/Nh3nqzcd5xE2HefLNh3n/zYd5/82Hef9Nh3n/zYd5/82HefHNh3n+DYd5/k2HeepNh3nIzYd5+Y2Hef/Nh3nqzYd5yE2HefmNh3n/zYd57o2HedsNh3n2DYd5/82Hef1Nh3nPjYd50I2HecqNh7nHzYd5+Y2Hef/Nh3nqzYd5yU2HefqNh3n/jYd52U4HugDNh3npzYd5/82Hef/////AP///wD///8ANh7nHzYd5+Y2Hef/Nh3nqzYd5yU2HefqNh3n/jYd52I3H+gDNh3nqDYd5/82Hef9////AP///wD///8ANh7nHzYd5+Y2Hef/Nh3nqjYd5xw2Hee5Nh3nyzYd50o2HecSNh3nyzYd5/82Hefn////AP///wD///8ANh7nHzYd5+Y2Hef/Nh3nqjkg5gM3HeYKNx3mCzYd5w82HeeKNh3n+zYd5/82Heef////AP///wD///8ANh7nHzYd5+Y2Hef/Nh3nqzkh5gL///8ANh3nFjYd56A2Hef6Nh3n/zYd59I2Hecp////AP///wD///8ANh7nHzYd5+Y2Hef/Nh3nqzkh5gI2HecVNh3nrzYd5/02Hef/Nh3nyzYd5zNeUvAA////AP///wD///8ANh7nHzYd5+Y2Hef/Nh3nqjgg5gQ2HeeFNh3n/TYd5/42Hee7Nh3nJf///wD///8A////AP///wD///8ANh7nHzYd5+Y2Hef/Nh3nqjYd5xQ2HefUNh3n/zYd59Y2HecjNh3nKjYd5142Heda////AP///wD///8ANh7nHzYd5+Y2Hef/Nh3nqzYd5yI2HefoNh3n/zYd55w6I+cBNh3neDYd5/02Hef9////AP///wD///8ANh7nHzYd5+Y2Hef/Nh3nqzYd5yU2HefqNh3n/zYd55I6JecBNh3nfTYd5/42Hef/////AP///wD///8ANh7nHzYd5+Y2Hef/Nh3nqzYd5yE2HefmNh3n/zYd59A2HedrNh3nxjYd5/82Hef2////AP///wD///8ANh7nHzYd5+Y2Hef/Nh3nqzce5xE2HefLNh3n/zYd5/82Hef9Nh3n/zYd5/82HefI////AP///wD///8ANh3nHDYd5+Q2Hef/Nh3npjkh5gI2HedNNh3n0TYd5/k2Hef/Nh3n+DYd58w2HedEAAAAAAAAAAAAAAAAAAAAAOAAAADgAAAA4AAAAOCAAADgAgAA4AYAAOAAAADgAAAA4AAAAOAAAADgAAAA4AAAACgAAAAdAAAAQAAAAAEAIAAAAAAAAAAAAAAAAAAAAAAAAAAAAAAAAAA2HefrNh3n/zYd5/82Hef/Nh3n7jcc5iz///8ANh3nQDYd5/Y2Hef/Nh3n/zYd5/82HefLNB7mB////wD///8ANR3oDDYd6F42Hee5Nh3n5jYd5/g2Hef/Nh3n/zYd5/w2HefuNh3nyzYd54E3Hucd////ADYd5/82Hef/Nh3n/zYd5/82HefzNxzmN////wA2HudQNh3n+jYd5/82Hef/Nh3n/zYd59o4H+YL////ADUe5QU2HeeRNh3n+DYd5/82Hef/Nh3n/zYd5/82Hef/Nh3n/zYd5/82Hef/Nh3n/TYd58o2HeYbNh3n/zYd5/82Hef/Nh3n/zYd5/M3HOY3////ADYe51A2Hef6Nh3n/zYd5/82Hef/Nh3n2jgf5gv///8ANx3nJjYd5+82Hef/Nh3n/zYd5/82Hef/Nh3n/zYd5/82Hef/Nh3n/zYd5/82Hef/Nh3n/DYd53c2Hef/Nh3n/zYd5/82Hef/Nh3n8zcc5jf///8ANh7nUDYd5/o2Hef/Nh3n/zYd5/82HefaOB/mC////wA2HedgNh3n/zYd5/82Hef/Nh3n/zYd5/82Hef/Nh3n/zYd5/82Hef/Nh3n/zYd5/82Hef/Nh3nvzYd5/82Hef/Nh3n/zYd5/82HefzNxzmN////wA2HudQNh3n+jYd5/82Hef/Nh3n/zYd59o4H+YLbmb2ADYd5482Hef/Nh3n/zYd5/82Hef/Nh3n7TYd58k2HefJNh3n7TYd5/82Hef/Nh3n/zYd5/82HefmNh3n/TYd5/82Hef/Nh3n/zYd5/I3HOY1////ADYe51A2Hef6Nh3n/zYd5/82Hef/Nh3n2jgf5gtKO+sANhznoTYd5/82Hef/Nh3n/zYd5/s2HudPNh/mCTcd5wo2HedUNh3n9zYd5/82Hef/Nh3n/zYd5/Y2HedpNh3nfDYd53s2Hed7Nh3nbzce5hH///8ANh7nUTYd5/s2Hef/Nh3n/zYd5/82HefaOB/mC0Mx6QA2HeepNh3n/zYd5/82Hef/Nh3n9jYd5yT///8A////ADYd5yw2HefvNh3n/zYd5/82Hef/Nh3n/jki5wE4IeYCOCHmAjgh5gI3H+YC////AP///wA2HudRNh3n+zYd5/82Hef/Nh3n/zYd59o4H+YLQC3pADYd56o2Hef/Nh3n/zYd5/82HefzNR3nIv///wD///8ANx3oJzYd5+02Hef/Nh3n/zYd5/82Hef/////AP///wD///8A////AP///wD///8A////ADYe51E2Hef7Nh3n/zYd5/82Hef/Nh3n2jgf5gs+KugANh3nqjYd5/82Hef/Nh3n/zYd5/M1Heci////AP///wA2HegnNh3n7TYd5/82Hef/Nh3n/zYd5/////8A////AP///wD///8A////AP///wD///8ANh7nUjYd5/s2Hef/Nh3n/zYd5/82HefaOB/mCz0p6AA2HeeqNh3n/zYd5/82Hef/Nh3n9DUd5yL///8A////ADYd5y02HefvNh3n/zYd5/82Hef/Nh3n+P///wD///8A////AP///wD///8A////AP///wA2HudSNh3n+zYd5/82Hef/Nh3n/zYd59o4H+YMPCjoADYd56o2Hef/Nh3n/zYd5/82Hef0NR3nIv///wD///8ANR3nSzYd5/g2Hef/Nh3n/zYd5/82Hefn////AP///wD///8A////AP///wD///8A////ADYe51I2Hef7Nh3n/zYd5/82Hef/Nh3n2jgf5gxGNOoANxznWTcd5rA3HeaxNx3msTYd5542HecR////ADYe6Ak2HeeqNh3n/zYd5/82Hef/Nh3n/zYd58L///8A////AP///wD///8A////AP///wD///8ANh7nUzYd5/s2Hef/Nh3n/zYd5/82HefaOB/mDP///wA7IugBOB/mAjgf5gI4H+YCNyDnAv///wA4HuUCNh3nYTYd5/U2Hef/Nh3n/zYd5/82Hef9Nh3nf////wD///8A////AP///wD///8A////AP///wA2HudTNh3n+zYd5/82Hef/Nh3n/zYd59o4H+YM////AP///wD///8A////AP///wD///8ANSDpBDYd51s2HefvNh3n/zYd5/82Hef/Nh3n/zYd5+c2Heco////AP///wD///8A////AP///wD///8A////ADYe51M2Hef8Nh3n/zYd5/82Hef/Nh3n2jgf5gz///8A////AP///wD///8A////ADYe5wg2Hed1Nh3n8zYd5/82Hef/Nh3n/zYd5/82Hef6NxzneTge5gT///8A////AP///wD///8A////AP///wD///8ANh7nUzYd5/w2Hef/Nh3n/zYd5/82HefaOB/mDP///wD///8A////AP///wA3HegMNh3nkjYd5/g2Hef/Nh3n/zYd5/82Hef/Nh3n/DYd56M3HecN////AP///wD///8A////AP///wD///8A////AP///wA2HudTNh3n/DYd5/82Hef/Nh3n/zYd59o4H+YM////AP///wD///8ANx3oDTYd56I2Hef7Nh3n/zYd5/82Hef/Nh3n/zYd5/w2HeenNx7nEf///wD///8A////AP///wD///8A////AP///wD///8A////ADYe51M2Hef8Nh3n/zYd5/82Hef/Nh3n2jgf5gz///8A////ADYf5wc2HeeUNh3n+zYd5/82Hef/Nh3n/zYd5/82Hef5Nh3nlzcd5g7///8A////AP///wD///8A////AP///wD///8A////AP///wD///8ANh7nUzYd5/s2Hef/Nh3n/zYd5/82HefaOB/mDP///wBKN+4ANx3oUDYd5/c2Hef/Nh3n/zYd5/82Hef/Nh3n9Tcd54E3HecK////AP///wD///8A////AP///wD///8A////AP///wD///8A////AP///wA2HudTNh3n+zYd5/82Hef/Nh3n/zYd59o4H+YM////ADUe5w82HefVNh3n/zYd5/82Hef/Nh3n/zYd5/Q2HedsNxzoBv///wD///8A////AP///wD///8A////AP///wD///8A////AP///wD///8A////ADYe51I2Hef7Nh3n/zYd5/82Hef/Nh3n2jgf5gz///8ANh3nNDYd5/g2Hef/Nh3n/zYd5/82Hef8Nh3ngzge5wX///8ANx/mAjce5wQ3HucENx7nBDce5wP///8A////AP///wD///8A////AP///wD///8ANh7nUjYd5/s2Hef/Nh3n/zYd5/82HefaOB/mDEEw6AA1HedxNh3n/zYd5/82Hef/Nh3n/zYd59Y3HecT////ADYe5gU2HeaJNh3nyDYd58g2HefINh3ntP///wD///8A////AP///wD///8A////AP///wA2HudSNh3n+zYd5/82Hef/Nh3n/zYd59o4H+YLPivoADYd55g2Hef/Nh3n/zYd5/82Hef+Nh3nlD0n5wH///8ANh3nCDYd58Q2Hef/Nh3n/zYd5/82Hef/////AP///wD///8A////AP///wD///8A////ADYe51E2Hef7Nh3n/zYd5/82Hef/Nh3n2jgf5gs+K+gANh3npjYd5/82Hef/Nh3n/zYd5/03Hedy////AP///wA2HecINh3nxTYd5/82Hef/Nh3n/zYd5/////8A////AP///wD///8A////AP///wD///8ANh7nUTYd5/s2Hef/Nh3n/zYd5/82HefaOB/mC0At6QA2HeeqNh3n/zYd5/82Hef/Nh3n/DYe52z///8A////ADYd5wg2HefGNh3n/zYd5/82Hef/Nh3n/////wD///8A////AP///wD///8A////AP///wA2HudRNh3n+zYd5/82Hef/Nh3n/zYd59o4H+YLQzHpADYd56k2Hef/Nh3n/zYd5/82Hef9Nh3mcv///wD///8ANh7nCTYd5802Hef/Nh3n/zYd5/82Hef+////AP///wD///8A////AP///wD///8A////ADYe51A2Hef6Nh3n/zYd5/82Hef/Nh3n2jgf5gtKO+sANhznoTYd5/82Hef/Nh3n/zYd5/42HeehNh3nDTcd5gk2HeckNh3n5TYd5/82Hef/Nh3n/zYd5/f///8A////AP///wD///8A////AP///wD///8ANh7nUDYd5/o2Hef/Nh3n/zYd5/82HefaOB/mC25m9gA2HeePNh3n/zYd5/82Hef/Nh3n/zYd5/c2HefTNh3nyTYd5+I2Hef+Nh3n/zYd5/82Hef/Nh3n5////wD///8A////AP///wD///8A////AP///wA2HudQNh3n+jYd5/82Hef/Nh3n/zYd59o4H+YL////ADYd52E2Hef/Nh3n/zYd5/82Hef/Nh3n/zYd5/82Hef/Nh3n/zYd5/82Hef/Nh3n/zYd5/82HefB////AP///wD///8A////AP///wD///8A////ADYe51A2Hef6Nh3n/zYd5/82Hef/Nh3n2jgf5gv///8ANh7nJzYd5/A2Hef/Nh3n/zYd5/82Hef/Nh3n/zYd5/82Hef/Nh3n/zYd5/82Hef/Nh3n/TYd53r///8A////AP///wD///8A////AP///wD///8ANh7nUDYd5/o2Hef/Nh3n/zYd5/82HefaOB/mC////wA4H+UFNh3nkzYd5/g2Hef/Nh3n/zYd5/82Hef/Nh3n/zYd5/82Hef/Nh3n/zYd5/02HefONhznHf///wD///8A////AP///wD///8A////AP///wA2HedANh3n9zYd5/82Hef/Nh3n/zYd58w4HuYH////AP///wA2HOYMNh3nYDYd57o2HefnNh3n+DYd5/82Hef/Nh3n/DYd5/A2HefNNh3nhDYd5x////8AAgMACAICAAACAgAAAgIAAAICAAACAgAAAgIGAAYCBgD+AgYA/gIGAP4CBgD+AgQA/gIIAP4D8AD+A+AA/gPACP4DgBj+AwA4/gMAeP4CAPj+AgEA/gICAP4CAgD+AgYA/gIGAP4CBgD+AgAA/gIAAP4CAAD+AgAA/gIAAP4DAAg=;" vertex="1" parent="1">
          <mxGeometry x="17" y="273.13" width="60.49" height="66.75" as="geometry" />
        </mxCell>
        <mxCell id="8HLTbYfNLxjijETVZFHI-5" value="isnic.is" style="text;strokeColor=none;align=center;fillColor=none;html=1;verticalAlign=middle;whiteSpace=wrap;rounded=0;" vertex="1" parent="1">
          <mxGeometry x="30.49000000000001" y="360.01" width="60" height="30" as="geometry" />
        </mxCell>
        <mxCell id="8HLTbYfNLxjijETVZFHI-6" value="Route53" style="text;strokeColor=none;align=center;fillColor=none;html=1;verticalAlign=middle;whiteSpace=wrap;rounded=0;" vertex="1" parent="1">
          <mxGeometry x="155.25" y="360.01" width="60" height="30" as="geometry" />
        </mxCell>
        <mxCell id="8HLTbYfNLxjijETVZFHI-7" value="Cloudfront" style="text;strokeColor=none;align=center;fillColor=none;html=1;verticalAlign=middle;whiteSpace=wrap;rounded=0;" vertex="1" parent="1">
          <mxGeometry x="308.25" y="360.01" width="60" height="30" as="geometry" />
        </mxCell>
        <mxCell id="8HLTbYfNLxjijETVZFHI-8" value="API Gateway" style="text;strokeColor=none;align=center;fillColor=none;html=1;verticalAlign=middle;whiteSpace=wrap;rounded=0;" vertex="1" parent="1">
          <mxGeometry x="453.25" y="360.01" width="60" height="30" as="geometry" />
        </mxCell>
        <mxCell id="8HLTbYfNLxjijETVZFHI-9" value="" style="outlineConnect=0;dashed=0;verticalLabelPosition=bottom;verticalAlign=top;align=center;html=1;shape=mxgraph.aws3.certificate_manager;fillColor=#759C3E;gradientColor=none;" vertex="1" parent="1">
          <mxGeometry x="300" y="114.75" width="76.5" height="61.5" as="geometry" />
        </mxCell>
        <mxCell id="8HLTbYfNLxjijETVZFHI-10" value="Certificate Manager" style="text;strokeColor=none;align=center;fillColor=none;html=1;verticalAlign=middle;whiteSpace=wrap;rounded=0;" vertex="1" parent="1">
          <mxGeometry x="308.25" y="192.25" width="60" height="30" as="geometry" />
        </mxCell>
        <mxCell id="8HLTbYfNLxjijETVZFHI-11" value="" style="outlineConnect=0;dashed=0;verticalLabelPosition=bottom;verticalAlign=top;align=center;html=1;shape=mxgraph.aws3.lambda;fillColor=#F58534;gradientColor=none;" vertex="1" parent="1">
          <mxGeometry x="590" y="259.75" width="76.5" height="93" as="geometry" />
        </mxCell>
        <mxCell id="8HLTbYfNLxjijETVZFHI-12" value="Lambda" style="text;strokeColor=none;align=center;fillColor=none;html=1;verticalAlign=middle;whiteSpace=wrap;rounded=0;" vertex="1" parent="1">
          <mxGeometry x="598.25" y="360.01" width="60" height="30" as="geometry" />
        </mxCell>
        <mxCell id="8HLTbYfNLxjijETVZFHI-14" value="" style="outlineConnect=0;dashed=0;verticalLabelPosition=bottom;verticalAlign=top;align=center;html=1;shape=mxgraph.aws3.dynamo_db;fillColor=#2E73B8;gradientColor=none;" vertex="1" parent="1">
          <mxGeometry x="725" y="265.75" width="72" height="81" as="geometry" />
        </mxCell>
        <mxCell id="8HLTbYfNLxjijETVZFHI-15" value="Dynamo DB" style="text;strokeColor=none;align=center;fillColor=none;html=1;verticalAlign=middle;whiteSpace=wrap;rounded=0;" vertex="1" parent="1">
          <mxGeometry x="731" y="360.01" width="60" height="30" as="geometry" />
        </mxCell>
        <mxCell id="8HLTbYfNLxjijETVZFHI-16" value="" style="outlineConnect=0;dashed=0;verticalLabelPosition=bottom;verticalAlign=top;align=center;html=1;shape=mxgraph.aws3.s3;fillColor=#E05243;gradientColor=none;" vertex="1" parent="1">
          <mxGeometry x="590" y="99" width="76.5" height="93" as="geometry" />
        </mxCell>
        <mxCell id="8HLTbYfNLxjijETVZFHI-17" value="" style="outlineConnect=0;dashed=0;verticalLabelPosition=bottom;verticalAlign=top;align=center;html=1;shape=mxgraph.aws3.api_gateway;fillColor=#D9A741;gradientColor=none;" vertex="1" parent="1">
          <mxGeometry x="445" y="260.01" width="76.5" height="93" as="geometry" />
        </mxCell>
        <mxCell id="8HLTbYfNLxjijETVZFHI-19" value="S3" style="text;strokeColor=none;align=center;fillColor=none;html=1;verticalAlign=middle;whiteSpace=wrap;rounded=0;" vertex="1" parent="1">
          <mxGeometry x="598.25" y="192.25" width="60" height="30" as="geometry" />
        </mxCell>
        <mxCell id="8HLTbYfNLxjijETVZFHI-21" style="edgeStyle=orthogonalEdgeStyle;rounded=0;orthogonalLoop=1;jettySize=auto;html=1;entryX=0;entryY=0.5;entryDx=0;entryDy=0;entryPerimeter=0;endArrow=none;endFill=0;" edge="1" parent="1" source="8HLTbYfNLxjijETVZFHI-2" target="8HLTbYfNLxjijETVZFHI-3">
          <mxGeometry relative="1" as="geometry" />
        </mxCell>
        <mxCell id="8HLTbYfNLxjijETVZFHI-26" style="edgeStyle=orthogonalEdgeStyle;rounded=0;orthogonalLoop=1;jettySize=auto;html=1;entryX=0;entryY=0.5;entryDx=0;entryDy=0;entryPerimeter=0;endArrow=none;endFill=0;" edge="1" parent="1" source="8HLTbYfNLxjijETVZFHI-17" target="8HLTbYfNLxjijETVZFHI-16">
          <mxGeometry relative="1" as="geometry" />
        </mxCell>
        <mxCell id="8HLTbYfNLxjijETVZFHI-27" style="edgeStyle=orthogonalEdgeStyle;rounded=0;orthogonalLoop=1;jettySize=auto;html=1;entryX=0;entryY=0.5;entryDx=0;entryDy=0;entryPerimeter=0;endArrow=none;endFill=0;" edge="1" parent="1" source="8HLTbYfNLxjijETVZFHI-17" target="8HLTbYfNLxjijETVZFHI-11">
          <mxGeometry relative="1" as="geometry" />
        </mxCell>
        <mxCell id="8HLTbYfNLxjijETVZFHI-28" style="edgeStyle=orthogonalEdgeStyle;rounded=0;orthogonalLoop=1;jettySize=auto;html=1;entryX=0;entryY=0.5;entryDx=0;entryDy=0;entryPerimeter=0;endArrow=none;endFill=0;" edge="1" parent="1" source="8HLTbYfNLxjijETVZFHI-11" target="8HLTbYfNLxjijETVZFHI-14">
          <mxGeometry relative="1" as="geometry" />
        </mxCell>
      </root>
    </mxGraphModel>
  </diagram>
</mxfile>
